<?xml version="1.0" encoding="UTF-8" standalone="no"?>
<!-- Generator: Adobe Illustrator 17.0.2, SVG Export Plug-In . SVG Version: 6.00 Build 0)  -->

<svg
   xmlns:dc="http://purl.org/dc/elements/1.1/"
   xmlns:cc="http://creativecommons.org/ns#"
   xmlns:rdf="http://www.w3.org/1999/02/22-rdf-syntax-ns#"
   xmlns:svg="http://www.w3.org/2000/svg"
   xmlns="http://www.w3.org/2000/svg"
   xmlns:sodipodi="http://sodipodi.sourceforge.net/DTD/sodipodi-0.dtd"
   xmlns:inkscape="http://www.inkscape.org/namespaces/inkscape"
   version="1.1"
   id="Layer_1"
   x="0px"
   y="0px"
   width="88.811127"
   height="11.92382"
   viewBox="-0.958 0.462 88.811127 11.92382"
   enable-background="new -0.958 0.462 74 12.132"
   xml:space="preserve"
   inkscape:version="0.48.4 r9939"
   sodipodi:docname="sysmo-web-trans.svg"><metadata
     id="metadata9"><rdf:RDF><cc:Work
         rdf:about=""><dc:format>image/svg+xml</dc:format><dc:type
           rdf:resource="http://purl.org/dc/dcmitype/StillImage" /><dc:title /></cc:Work></rdf:RDF></metadata><defs
     id="defs7" /><sodipodi:namedview
     pagecolor="#030303"
     bordercolor="#666666"
     borderopacity="1"
     objecttolerance="10"
     gridtolerance="10"
     guidetolerance="10"
     inkscape:pageopacity="0"
     inkscape:pageshadow="2"
     inkscape:window-width="1545"
     inkscape:window-height="925"
     id="namedview5"
     showgrid="false"
     fit-margin-top="0"
     fit-margin-left="0"
     fit-margin-right="0"
     fit-margin-bottom="0"
     inkscape:zoom="12.567568"
     inkscape:cx="28.867111"
     inkscape:cy="20.220924"
     inkscape:window-x="177"
     inkscape:window-y="50"
     inkscape:window-maximized="0"
     inkscape:current-layer="Layer_1" /><text
     xml:space="preserve"
     style="font-size:40px;font-style:normal;font-variant:normal;font-weight:normal;font-stretch:normal;line-height:125%;letter-spacing:0px;word-spacing:0px;fill:#000000;fill-opacity:1;stroke:none;font-family:Team America;-inkscape-font-specification:Team America"
     x="17.136192"
     y="7.108881"
     id="text2986"
     sodipodi:linespacing="125%"><tspan
       sodipodi:role="line"
       id="tspan2988"
       x="17.136192"
       y="7.108881" /></text>
<g
     transform="scale(0.94510794,1.0580802)"
     style="font-size:19.84031105000000039px;font-style:normal;font-variant:normal;font-weight:normal;font-stretch:normal;line-height:125%;letter-spacing:0px;word-spacing:0px;fill:#ffffff;fill-opacity:0.40358743;stroke:none;font-family:Team America;-inkscape-font-specification:Team America"
     id="text2990"><path
       d="m 9.7794883,11.705936 c 0.4497017,0 0.9853897,-0.05291 1.6070657,-0.158722 0.634876,-0.119042 1.263152,-0.304218 1.884829,-0.555529 0.621648,-0.264536 1.197016,-0.595208 1.726107,-0.9920153 0.529058,-0.3968041 0.925864,-0.886198 1.190419,-1.468183 C 16.412747,8.042096 16.525176,7.612223 16.525194,7.2418664 16.525176,6.8979725 16.432588,6.6069816 16.24743,6.3688928 16.075463,6.1308146 15.837379,5.9390251 15.533179,5.7935237 15.24217,5.6480342 14.898272,5.5356059 14.501482,5.4562385 14.10466,5.3636567 13.694628,5.2909089 13.271383,5.237995 l -3.9085412,0 C 9.1247472,5.2380015 8.8932771,5.2247746 8.6684309,5.1983144 8.4435639,5.1718672 8.2451609,5.1255732 8.0732216,5.0594322 7.9144894,4.9800777 7.7822208,4.8808763 7.6764153,4.7618276 7.570591,4.6295659 7.5176836,4.4708436 7.5176929,4.2856601 7.5176836,4.0872646 7.5838179,3.8557945 7.716096,3.5912492 7.861582,3.2738127 8.0798252,3.0158889 8.3708262,2.8174771 8.6618071,2.6058562 8.9726383,2.4405204 9.3033209,2.3214693 9.6472082,2.2024369 9.9911066,2.1230758 10.335017,2.0833856 10.69213,2.0304878 11.009575,2.004034 11.287352,2.0040243 l 7.916284,0 0.734092,-1.56738454 -10.7336087,0 C 8.7411682,0.43665102 8.1988669,0.4961719 7.5772138,0.61520255 6.955542,0.72102853 6.3338796,0.90620458 5.7122246,1.1707313 5.0905546,1.4220522 4.5085728,1.7527237 3.9662772,2.1627468 3.437197,2.5595622 3.0403912,3.0423426 2.7758585,3.6110895 2.5642242,4.0740377 2.4584093,4.4840704 2.4584135,4.8411888 c -4.2e-6,0.3439053 0.092584,0.6348962 0.2777644,0.8729737 0.1851716,0.2380895 0.4298685,0.429879 0.7340915,0.575369 0.3042126,0.1455009 0.6547244,0.2645426 1.0515365,0.3571256 0.4100264,0.079366 0.833286,0.1388871 1.2697799,0.1785628 l 3.8490203,0 c 0.4761559,4.9e-6 0.8994149,0.072753 1.2697799,0.2182434 0.370339,0.1322733 0.555516,0.3901971 0.555529,0.7737722 -1.3e-5,0.2248605 -0.06615,0.4695574 -0.198403,0.7340915 C 11.122003,8.8687748 10.90376,9.133312 10.612781,9.3449394 10.321778,9.5433447 10.004333,9.702067 9.6604465,9.8211069 9.3165367,9.9401505 8.9660249,10.026125 8.60891,10.079031 c -0.3439088,0.03968 -0.65474,0.05952 -0.9324947,0.05952 l -7.95596468,0 -0.73409152,1.567384 10.7931292,0"
       style="fill:#ffffff;fill-opacity:0.40358743"
       id="path2995" /><path
       d="m 29.821922,5.5951206 -3.392694,0 C 25.926597,5.5951267 25.49011,5.5289924 25.119768,5.3967175 24.762633,5.2644552 24.58407,5.0065314 24.58408,4.6229454 c -10e-6,-0.1587153 0.03967,-0.3505047 0.119041,-0.575369 l 1.686427,-3.61093664 -4.940238,0 -1.646745,3.53157534 c -0.224861,0.4894016 -0.33729,0.9325014 -0.337286,1.3293009 -4e-6,0.3439048 0.08597,0.6415091 0.257924,0.892814 0.171945,0.238089 0.396802,0.4298785 0.674571,0.575369 0.290986,0.1455004 0.621657,0.2513153 0.992015,0.317445 0.370347,0.066139 0.760539,0.099206 1.170579,0.099202 l 6.507622,0 -0.575369,1.2300993 c -0.145509,0.317448 -0.330685,0.5885986 -0.555529,0.8134528 -0.224869,0.2116322 -0.469566,0.3901948 -0.734091,0.5356883 -0.264549,0.1322706 -0.5357,0.2314721 -0.813453,0.2976051 -0.277775,0.05291 -0.542312,0.07936 -0.793613,0.07936 l -7.003629,0 -0.734092,1.567384 8.213889,0 c 0.515837,0 1.124272,-0.03307 1.825308,-0.0992 0.701012,-0.06613 1.402035,-0.205016 2.103073,-0.416647 0.714236,-0.224856 1.375579,-0.548914 1.984032,-0.972175 0.621645,-0.423258 1.104426,-0.9986264 1.448342,-1.726107 l 3.749819,-8.05516624 -4.960078,0 -2.400677,5.15848084"
       style="fill:#ffffff;fill-opacity:0.40358743"
       id="path2997" /><path
       d="m 44.228776,11.705936 c 0.449701,0 0.985389,-0.05291 1.607065,-0.158722 0.634876,-0.119042 1.263152,-0.304218 1.884829,-0.555529 0.621648,-0.264536 1.197016,-0.595208 1.726108,-0.9920153 0.529057,-0.3968041 0.925863,-0.886198 1.190418,-1.468183 C 50.862035,8.042096 50.974463,7.612223 50.974481,7.2418664 50.974463,6.8979725 50.881875,6.6069816 50.696717,6.3688928 50.52475,6.1308146 50.286666,5.9390251 49.982466,5.7935237 49.691458,5.6480342 49.347559,5.5356059 48.95077,5.4562385 48.553948,5.3636567 48.143915,5.2909089 47.72067,5.237995 l -3.908541,0 c -0.238094,6.5e-6 -0.469564,-0.01322 -0.694411,-0.039681 C 42.892851,5.1718672 42.694448,5.1255732 42.522509,5.0594322 42.363777,4.9800777 42.231508,4.8808763 42.125703,4.7618276 42.019878,4.6295659 41.966971,4.4708436 41.96698,4.2856601 c -9e-6,-0.1983955 0.06612,-0.4298656 0.198403,-0.6944109 0.145486,-0.3174365 0.36373,-0.5753603 0.654731,-0.7737721 0.29098,-0.2116209 0.601812,-0.3769567 0.932494,-0.4960078 0.343888,-0.1190324 0.687786,-0.1983935 1.031696,-0.2380837 0.357114,-0.052898 0.674558,-0.079352 0.952335,-0.079361 l 7.916284,0 0.734092,-1.56738454 -10.733608,0 c -0.462951,1.126e-5 -1.005253,0.0595321 -1.626906,0.17856279 -0.621672,0.10582598 -1.243334,0.29100203 -1.864989,0.55552875 -0.62167,0.2513209 -1.203652,0.5819924 -1.745947,0.9920155 -0.529081,0.3968154 -0.925886,0.8795958 -1.190419,1.4483427 -0.211634,0.4629482 -0.317449,0.8729809 -0.317445,1.2300993 -4e-6,0.3439053 0.09258,0.6348962 0.277764,0.8729737 0.185172,0.2380895 0.429869,0.429879 0.734092,0.575369 0.304212,0.1455009 0.654724,0.2645426 1.051536,0.3571256 0.410027,0.079366 0.833286,0.1388871 1.26978,0.1785628 l 3.849021,0 c 0.476155,4.9e-6 0.899415,0.072753 1.269779,0.2182434 0.37034,0.1322733 0.555516,0.3901971 0.555529,0.7737722 -1.3e-5,0.2248605 -0.06615,0.4695574 -0.198403,0.7340915 -0.145508,0.3174478 -0.363752,0.581985 -0.65473,0.7936124 -0.291004,0.1984053 -0.608448,0.3571276 -0.952335,0.4761675 -0.34391,0.1190436 -0.694422,0.2050181 -1.051537,0.2579241 -0.343908,0.03968 -0.65474,0.05952 -0.932494,0.05952 l -7.955965,0 -0.734091,1.567384 10.793129,0"
       style="fill:#ffffff;fill-opacity:0.40358743"
       id="path2999" /><path
       d="m 55.918438,0.43663976 -5.257682,11.26929624 4.940237,0 4.523591,-9.7019117 3.075248,0 -4.523591,9.7019117 4.940238,0 4.523591,-9.7019117 0.992015,0 c 0.38356,9.7e-6 0.727458,0.079371 1.031696,0.2380838 0.304198,0.1455049 0.456307,0.3968152 0.456328,0.7539318 -2.1e-5,0.2248653 -0.06615,0.4695622 -0.198404,0.7340915 l -3.710138,7.9758046 4.940238,0 3.749819,-8.0551659 C 75.600001,3.2142918 75.699202,2.8373263 75.699228,2.5198724 75.699202,2.0569415 75.54048,1.6932028 75.223061,1.4286553 74.905591,1.1509015 74.508785,0.93927174 74.032642,0.79376535 73.556451,0.6482808 73.047217,0.55569277 72.504938,0.516001 c -0.529097,-0.0528963 -1.011877,-0.07935 -1.448343,-0.0793612 l -15.138157,0"
       style="fill:#ffffff;fill-opacity:0.40358743"
       id="path3001" /><path
       d="m 79.662644,8.4124448 c -0.119049,0.2777674 -0.17857,0.5224643 -0.178563,0.7340915 -7e-6,0.3571278 0.145489,0.6150516 0.436487,0.7737721 0.30421,0.1454976 0.654722,0.2182446 1.051537,0.2182436 l 1.607065,0 c 0.2513,10e-7 0.515837,-0.02645 0.793612,-0.07936 0.29098,-0.066133 0.568744,-0.1653345 0.833293,-0.2976051 0.264526,-0.1454935 0.509223,-0.3240561 0.734092,-0.5356883 0.224844,-0.2248542 0.41002,-0.4960048 0.555529,-0.8134528 L 87.67813,3.7301314 C 87.810383,3.4656021 87.876517,3.2209052 87.876533,2.9960399 87.876517,2.6389233 87.724409,2.387613 87.420206,2.2421081 87.115973,2.0833952 86.765461,2.004034 86.368669,2.0040243 l -1.607065,0 c -0.251323,9.7e-6 -0.51586,0.033077 -0.793612,0.099202 -0.277776,0.052917 -0.548927,0.1521185 -0.813453,0.2976046 -0.264548,0.132278 -0.515858,0.3108406 -0.753932,0.5356884 -0.224867,0.2116386 -0.410043,0.4761758 -0.555529,0.7936125 l -2.182434,4.6823134 m -0.63489,3.2934912 c -0.436493,0 -0.925887,-0.01984 -1.468183,-0.05952 -0.542306,-0.03968 -1.05154,-0.125655 -1.527704,-0.257924 -0.462944,-0.145495 -0.859749,-0.357124 -1.190418,-0.634889 -0.317448,-0.277764 -0.47617,-0.648116 -0.476168,-1.1110579 -2e-6,-0.3174426 0.0992,-0.6944081 0.297605,-1.1308977 l 2.261795,-4.8608763 c 0.330667,-0.7274692 0.806834,-1.3028377 1.428503,-1.726107 0.621656,-0.4232498 1.282999,-0.7406944 1.984031,-0.95233495 0.714242,-0.2248459 1.421879,-0.37034137 2.122913,-0.43648684 0.701014,-0.0661231 1.309449,-0.0991903 1.825309,-0.0992016 l 4.027583,0 c 0.43647,1.126e-5 0.919251,0.026465 1.448342,0.0793612 0.542284,0.0396918 1.051519,0.1322798 1.527704,0.27776435 0.476149,0.14550639 0.872954,0.35713615 1.190419,0.63488995 0.317425,0.2645475 0.476147,0.6282862 0.476168,1.0912171 -2.1e-5,0.3174539 -0.09922,0.6944194 -0.297605,1.1308977 l -2.261796,4.8608763 c -0.224874,0.489397 -0.515865,0.9060431 -0.872973,1.2499395 -0.357143,0.3439001 -0.753948,0.6348911 -1.190419,0.8729741 -0.423275,0.238084 -0.872989,0.429874 -1.349141,0.575369 -0.476182,0.132269 -0.952349,0.238084 -1.428502,0.317445 -0.462954,0.07936 -0.912667,0.132268 -1.349142,0.158722 -0.423271,0.01323 -0.80685,0.01984 -1.150738,0.01984 l -4.027583,0"
       style="fill:#ffffff;fill-opacity:0.40358743"
       id="path3003" /></g></svg>